name Walk9.mot
datacolumns 19
datarows 30
range 1.37000000 1.39900000
endheader

                time	   L_ground_force_vx	   L_ground_force_vy	   L_ground_force_vz	   L_ground_force_px	   L_ground_force_py	   L_ground_force_pz	   R_ground_force_vx	   R_ground_force_vy	   R_ground_force_vz	   R_ground_force_px	   R_ground_force_py	   R_ground_force_pz	   L_ground_torque_x	   L_ground_torque_y	   L_ground_torque_z	   R_ground_torque_x	   R_ground_torque_y	   R_ground_torque_z	
          1.37000000	          0.00000000	          0.00000000	          0.00000000	          0.00000000	          0.00000000	          0.00000000	          0.00000000	          0.00000000	          0.00000000	          0.00000000	          0.00000000	          0.00000000	          0.00000000	          0.00000000	          0.00000000	          0.00000000	          0.00000000	          0.00000000	
          1.37100000	          0.00000000	          0.00000000	          0.00000000	          0.00000000	          0.00000000	          0.00000000	          0.00000000	          0.00000000	          0.00000000	          0.00000000	          0.00000000	          0.00000000	          0.00000000	          0.00000000	          0.00000000	          0.00000000	          0.00000000	          0.00000000	
          1.37200000	          0.00000000	          0.00000000	          0.00000000	          0.00000000	          0.00000000	          0.00000000	          0.00000000	          0.00000000	          0.00000000	          0.00000000	          0.00000000	          0.00000000	          0.00000000	          0.00000000	          0.00000000	          0.00000000	          0.00000000	          0.00000000	
          1.37300000	          0.00000000	          0.00000000	          0.00000000	          0.00000000	          0.00000000	          0.00000000	          0.00000000	          0.00000000	          0.00000000	          0.00000000	          0.00000000	          0.00000000	          0.00000000	          0.00000000	          0.00000000	          0.00000000	          0.00000000	          0.00000000	
          1.37400000	          0.00000000	          0.00000000	          0.00000000	          0.00000000	          0.00000000	          0.00000000	          0.00000000	          0.00000000	          0.00000000	          0.00000000	          0.00000000	          0.00000000	          0.00000000	          0.00000000	          0.00000000	          0.00000000	          0.00000000	          0.00000000	
          1.37500000	          0.00000000	          0.00000000	          0.00000000	          0.00000000	          0.00000000	          0.00000000	          0.00000000	          0.00000000	          0.00000000	          0.00000000	          0.00000000	          0.00000000	          0.00000000	          0.00000000	          0.00000000	          0.00000000	          0.00000000	          0.00000000	
          1.37600000	         -5.00319610	         16.27654928	         -1.63828140	         -0.35735331	          0.00000000	         -0.05954441	          0.00000000	          0.00000000	          0.00000000	          0.00000000	          0.00000000	          0.00000000	          0.00000000	          0.02423680	          0.00000000	          0.00000000	          0.00000000	          0.00000000	
          1.37700000	         -8.09208095	         32.72479174	         -2.11196341	         -0.35851735	          0.00000000	         -0.06092547	          0.00000000	          0.00000000	          0.00000000	          0.00000000	          0.00000000	          0.00000000	          0.00000000	          0.05169764	          0.00000000	          0.00000000	          0.00000000	          0.00000000	
          1.37800000	        -11.61577096	         55.95535537	         -2.33067097	         -0.35927556	          0.00000000	         -0.06073961	          0.00000000	          0.00000000	          0.00000000	          0.00000000	          0.00000000	          0.00000000	          0.00000000	          0.09912952	          0.00000000	          0.00000000	          0.00000000	          0.00000000	
          1.37900000	        -15.28610861	         86.34581493	         -2.25240207	         -0.35984071	          0.00000000	         -0.05981686	          0.00000000	          0.00000000	          0.00000000	          0.00000000	          0.00000000	          0.00000000	          0.00000000	          0.16377281	          0.00000000	          0.00000000	          0.00000000	          0.00000000	
          1.38000000	        -18.70553716	        123.04972306	         -1.99798920	         -0.36022049	          0.00000000	         -0.05869436	          0.00000000	          0.00000000	          0.00000000	          0.00000000	          0.00000000	          0.00000000	          0.00000000	          0.23747193	          0.00000000	          0.00000000	          0.00000000	          0.00000000	
          1.38100000	        -21.43849846	        163.63091977	         -1.83720428	         -0.36039228	          0.00000000	         -0.05765837	          0.00000000	          0.00000000	          0.00000000	          0.00000000	          0.00000000	          0.00000000	          0.00000000	          0.30867624	          0.00000000	          0.00000000	          0.00000000	          0.00000000	
          1.38200000	        -23.17667520	        204.51979136	         -2.11295916	         -0.36037432	          0.00000000	         -0.05679845	          0.00000000	          0.00000000	          0.00000000	          0.00000000	          0.00000000	          0.00000000	          0.00000000	          0.36371828	          0.00000000	          0.00000000	          0.00000000	          0.00000000	
          1.38300000	        -23.87218147	        242.08568123	         -3.12684584	         -0.36021241	          0.00000000	         -0.05611595	          0.00000000	          0.00000000	          0.00000000	          0.00000000	          0.00000000	          0.00000000	          0.00000000	          0.39217536	          0.00000000	          0.00000000	          0.00000000	          0.00000000	
          1.38400000	        -23.74532676	        273.68046450	         -5.02712975	         -0.35995376	          0.00000000	         -0.05560977	          0.00000000	          0.00000000	          0.00000000	          0.00000000	          0.00000000	          0.00000000	          0.00000000	          0.39403970	          0.00000000	          0.00000000	          0.00000000	          0.00000000	
          1.38500000	        -23.16972738	        298.15929973	         -7.76532131	         -0.35963509	          0.00000000	         -0.05526735	          0.00000000	          0.00000000	          0.00000000	          0.00000000	          0.00000000	          0.00000000	          0.00000000	          0.38178334	          0.00000000	          0.00000000	          0.00000000	          0.00000000	
          1.38600000	        -22.51665980	        315.81687621	        -11.14654956	         -0.35928074	          0.00000000	         -0.05503079	          0.00000000	          0.00000000	          0.00000000	          0.00000000	          0.00000000	          0.00000000	          0.00000000	          0.37223970	          0.00000000	          0.00000000	          0.00000000	          0.00000000	
          1.38700000	        -22.05156153	        327.95801641	        -14.91595209	         -0.35891985	          0.00000000	         -0.05484200	          0.00000000	          0.00000000	          0.00000000	          0.00000000	          0.00000000	          0.00000000	          0.00000000	          0.37454451	          0.00000000	          0.00000000	          0.00000000	          0.00000000	
          1.38800000	        -21.91427718	        336.40051211	        -18.82081931	         -0.35858933	          0.00000000	         -0.05469223	          0.00000000	          0.00000000	          0.00000000	          0.00000000	          0.00000000	          0.00000000	          0.00000000	          0.38779569	          0.00000000	          0.00000000	          0.00000000	          0.00000000	
          1.38900000	        -22.14749822	        343.06465719	        -22.64355836	         -0.35829797	          0.00000000	         -0.05456788	          0.00000000	          0.00000000	          0.00000000	          0.00000000	          0.00000000	          0.00000000	          0.00000000	          0.40846342	          0.00000000	          0.00000000	          0.00000000	          0.00000000	
          1.39000000	        -22.73307789	        349.60212231	        -26.22426436	         -0.35800835	          0.00000000	         -0.05439813	          0.00000000	          0.00000000	          0.00000000	          0.00000000	          0.00000000	          0.00000000	          0.00000000	          0.43702010	          0.00000000	          0.00000000	          0.00000000	          0.00000000	
          1.39100000	        -23.62639613	        357.10245741	        -29.47295446	         -0.35767523	          0.00000000	         -0.05412735	          0.00000000	          0.00000000	          0.00000000	          0.00000000	          0.00000000	          0.00000000	          0.00000000	          0.47750725	          0.00000000	          0.00000000	          0.00000000	          0.00000000	
          1.39200000	        -24.79166488	        366.01529574	        -32.36046323	         -0.35729248	          0.00000000	         -0.05379453	          0.00000000	          0.00000000	          0.00000000	          0.00000000	          0.00000000	          0.00000000	          0.00000000	          0.53048410	          0.00000000	          0.00000000	          0.00000000	          0.00000000	
          1.39300000	        -26.22978252	        376.25808406	        -34.89704709	         -0.35688943	          0.00000000	         -0.05349803	          0.00000000	          0.00000000	          0.00000000	          0.00000000	          0.00000000	          0.00000000	          0.00000000	          0.58860018	          0.00000000	          0.00000000	          0.00000000	          0.00000000	
          1.39400000	        -27.98309887	        387.39614225	        -37.11245618	         -0.35648736	          0.00000000	         -0.05331195	          0.00000000	          0.00000000	          0.00000000	          0.00000000	          0.00000000	          0.00000000	          0.00000000	          0.64037556	          0.00000000	          0.00000000	          0.00000000	          0.00000000	
          1.39500000	        -30.11197841	        398.84144639	        -39.03652507	         -0.35608219	          0.00000000	         -0.05323356	          0.00000000	          0.00000000	          0.00000000	          0.00000000	          0.00000000	          0.00000000	          0.00000000	          0.67691620	          0.00000000	          0.00000000	          0.00000000	          0.00000000	
          1.39600000	        -32.66314735	        410.03427478	        -40.68975386	         -0.35567283	          0.00000000	         -0.05318709	          0.00000000	          0.00000000	          0.00000000	          0.00000000	          0.00000000	          0.00000000	          0.00000000	          0.69757971	          0.00000000	          0.00000000	          0.00000000	          0.00000000	
          1.39700000	        -35.65461086	        420.57426911	        -42.09200689	         -0.35527145	          0.00000000	         -0.05308866	          0.00000000	          0.00000000	          0.00000000	          0.00000000	          0.00000000	          0.00000000	          0.00000000	          0.71079685	          0.00000000	          0.00000000	          0.00000000	          0.00000000	
          1.39800000	        -39.06977654	        430.26867791	        -43.26296930	         -0.35486699	          0.00000000	         -0.05290716	          0.00000000	          0.00000000	          0.00000000	          0.00000000	          0.00000000	          0.00000000	          0.00000000	          0.72771183	          0.00000000	          0.00000000	          0.00000000	          0.00000000	
          1.39900000	        -42.84996647	        439.08919221	        -44.20319314	         -0.35441137	          0.00000000	         -0.05266780	          0.00000000	          0.00000000	          0.00000000	          0.00000000	          0.00000000	          0.00000000	          0.00000000	          0.75453972	          0.00000000	          0.00000000	          0.00000000	          0.00000000	
